<svg width="65" height="20" viewBox="0 0 65 20" fill="none" xmlns="http://www.w3.org/2000/svg">
    <path d="M3.44356 10.7941H2.39429V16.0398H3.44356V10.7941Z" fill="white" />
    <path d="M3.44356 4.84375H2.39429V9.86522H3.44356V4.84375Z" fill="white" />
    <path d="M8.59484 4.84375H4.393V5.78699H8.59484V4.84375Z" fill="white" />
    <path d="M7.89374 9.8664H4.393V10.7941H7.89374V9.8664Z" fill="white" />
    <path d="M8.78497 15.1121H4.393V16.0398H8.78497V15.1121Z" fill="white" />
    <path
        d="M14.1656 10.7942L8.76953 19.3525H9.90436L14.9059 11.2497L17.8802 16.0398H19.0139L15.695 10.7942H14.1656Z"
        fill="white" />
    <path d="M10.7968 4.84377L14.0183 9.86643H15.108L11.9317 4.84377H10.7968Z" fill="white" />
    <path d="M20.0335 1.34985L15.4752 8.71809L15.998 9.54566L21.1065 1.34985H20.0335Z" fill="white" />
    <path
        d="M31.0468 10.7942C30.8994 13.2363 29.2168 15.0107 26.9673 15.2325V16.2246C29.8335 15.9969 31.9891 13.7634 32.1483 10.7942H31.0468Z"
        fill="white" />
    <path
        d="M20.8524 9.86643H21.9575C22.1951 7.55901 23.8469 5.86452 26.0179 5.65107V4.65894C23.2195 4.87596 21.1043 7.01763 20.8524 9.86643Z"
        fill="white" />
    <path
        d="M26.9674 5.65224C29.1455 5.87046 30.7913 7.56257 31.0278 9.86641H32.1317C31.8775 7.04623 29.7706 4.88549 26.9662 4.66011V5.65224H26.9674Z"
        fill="white" />
    <path
        d="M20.8367 10.7942C20.9923 13.7956 23.1313 16.0088 26.0177 16.2258V15.2337C23.7742 15.0167 22.0868 13.2411 21.9382 10.7942H20.8367Z"
        fill="white" />
    <path
        d="M37.5289 15.1121H35.9782V16.0398H37.5289C40.9298 16.0398 42.919 14.0555 43.0521 10.7941H41.9506C41.8187 13.507 40.1574 15.1121 37.5289 15.1121Z"
        fill="white" />
    <path d="M35.0286 10.7941H33.9769V16.0398H35.0286V10.7941Z" fill="white" />
    <path
        d="M37.5289 4.84375H35.9782V5.78699H37.5289C40.1075 5.78699 41.7212 7.37893 41.9351 9.86522H43.0379C42.8121 6.9091 40.8395 4.84375 37.5289 4.84375Z"
        fill="white" />
    <path d="M35.0286 4.84375H33.9769V9.86522H35.0286V4.84375Z" fill="white" />
    <path
        d="M45.0592 12.0415C45.0592 14.43 46.3402 16.0422 48.6882 16.2294V15.2444C46.9854 15.0596 46.0942 13.848 46.0942 12.026V10.7941H45.058V12.0415H45.0592Z"
        fill="white" />
    <path d="M53.268 4.84375H52.2318V9.86521H53.268V4.84375Z" fill="white" />
    <path
        d="M52.2317 12.0093C52.2317 13.8409 51.3333 15.0512 49.6388 15.242V16.227C51.9536 16.0291 53.2679 14.393 53.2679 12.0248V10.7941H52.2317V12.0093Z"
        fill="white" />
    <path d="M46.0953 4.84375H45.0591V9.86521H46.0953V4.84375Z" fill="white" />
    <path
        d="M56.7472 7.56258C56.7472 6.64557 57.3508 5.80846 58.6782 5.64271V4.6637C56.7757 4.85569 55.6789 6.1197 55.6789 7.56258C55.6789 11.9449 61.9579 9.49795 61.9579 13.1922C61.9579 14.3942 60.9918 15.1383 59.6276 15.254V16.2318C61.7749 16.0768 63.025 14.7531 63.025 13.1612C63.0262 8.58691 56.7472 10.8264 56.7472 7.56258Z"
        fill="white" />
    <path
        d="M56.3327 12.8249H55.281C55.281 14.6649 56.701 16.0148 58.6796 16.2175V15.2313C57.1942 15.0262 56.3327 14.0222 56.3327 12.8249Z"
        fill="white" />
    <path
        d="M61.7037 7.77127H62.7875C62.7875 5.77508 61.27 4.80561 59.629 4.65894V5.63795C60.9634 5.77866 61.7037 6.54661 61.7037 7.77127Z"
        fill="white" />
</svg>